<svg width="400" height="100" xmlns="http://www.w3.org/2000/svg">
<rect x="0" y="0" width="100" height="100" fill="none" stroke="red"/>
<path d="M 50 0 A 50 50 0 0 1 3.061616997868383e-15 50" fill="none" stroke="blue" stroke-width="2"/>
<text x="10" y="20">TL</text>
<rect x="100" y="0" width="100" height="100" fill="none" stroke="red"/>
<path d="M 200 50 A 50 50 0 0 1 150 6.123233995736766e-15" fill="none" stroke="blue" stroke-width="2"/>
<text x="110" y="20">TR</text>
<rect x="200" y="0" width="100" height="100" fill="none" stroke="red"/>
<path d="M 250 100 A 50 50 0 0 1 300 50" fill="none" stroke="blue" stroke-width="2"/>
<text x="210" y="20">BR</text>
<rect x="300" y="0" width="100" height="100" fill="none" stroke="red"/>
<path d="M 300 50 A 50 50 0 0 1 350 99.99999999999999" fill="none" stroke="blue" stroke-width="2"/>
<text x="310" y="20">BL</text>
</svg>