<svg xmlns="http://www.w3.org/2000/svg" viewBox="0 0 64 64">
  <!-- Neo-Brutalist Hard Shadow -->
  <rect x="8" y="8" width="50" height="50" rx="14" fill="#0F172A" />
  <!-- Tactile Board Outer Card -->
  <rect x="6" y="6" width="50" height="50" rx="14" fill="#FBF8EF" stroke="#0F172A" stroke-width="4" />
  
  <!-- 1. Top-Left: Yellow Connections (4-dots cluster) -->
  <rect x="12" y="12" width="17" height="17" rx="5" fill="#FACC15" stroke="#0F172A" stroke-width="2.5" />
  <circle cx="17.5" cy="17.5" r="1.8" fill="#0F172A" />
  <circle cx="23.5" cy="17.5" r="1.8" fill="#0F172A" />
  <circle cx="17.5" cy="23.5" r="1.8" fill="#0F172A" />
  <circle cx="23.5" cy="23.5" r="1.8" fill="#0F172A" />

  <!-- 2. Top-Right: Green Wordle (Classic "W") -->
  <rect x="33" y="12" width="17" height="17" rx="5" fill="#10B981" stroke="#0F172A" stroke-width="2.5" />
  <path d="M36.5 16.5 L38.5 24 L41.5 19 L44.5 24 L46.5 16.5" fill="none" stroke="#0F172A" stroke-width="2.2" stroke-linecap="round" stroke-linejoin="round" />

  <!-- 3. Bottom-Left: Blue Rebus (Stacked typography arrangement) -->
  <rect x="12" y="33" width="17" height="17" rx="5" fill="#3B82F6" stroke="#0F172A" stroke-width="2.5" />
  <rect x="15.5" y="37" width="10" height="2.2" rx="1" fill="#FFFFFF" stroke="#0F172A" stroke-width="0.8" />
  <rect x="15.5" y="41" width="6" height="2.2" rx="1" fill="#FFFFFF" stroke="#0F172A" stroke-width="0.8" />
  <rect x="15.5" y="45" width="10" height="2.2" rx="1" fill="#FFFFFF" stroke="#0F172A" stroke-width="0.8" />

  <!-- 4. Bottom-Right: Purple Emoji Alchemy (Magic Sparkle) -->
  <rect x="33" y="33" width="17" height="17" rx="5" fill="#A855F7" stroke="#0F172A" stroke-width="2.5" />
  <path d="M41.5 35.5 Q41.5 41.5 47.5 41.5 Q41.5 41.5 41.5 47.5 Q41.5 41.5 35.5 41.5 Q41.5 41.5 41.5 35.5 Z" fill="#FACC15" stroke="#0F172A" stroke-width="1.2" />
</svg>